# xmcd
#
# Track frame offsets: 
#        150
#        14292
#        34410
#        49815
#        64475
#        76860
#        93447
#        106602
#        121107
#        138652
#        154245
#
# Disc length: 2294 seconds
#
# Revision: 3
# Processed by: cddbd v1.5PL3 Copyright (c) Steve Scherf et al.
# Submitted via: ExactAudioCopy v0.95a3
#
DISCID=8c08f40b
DTITLE=Steve Kolander - Pieces Of A Puzzle
DYEAR=1996
DGENRE=Country
TTITLE0=Still Crazy 'Bout You
TTITLE1=Pieces Of A Puzzle
TTITLE2=Blue O'Clock
TTITLE3=We Should've Just Stayed Friends
TTITLE4=I Can Help
TTITLE5=My Love
TTITLE6=Full Moon Fever
TTITLE7=Round 'Bout Midnight
TTITLE8=Let's Dance
TTITLE9=Romeo
TTITLE10=Scoot Over, Move Closer
EXTD=
EXTT0=
EXTT1=
EXTT2=
EXTT3=
EXTT4=
EXTT5=
EXTT6=
EXTT7=
EXTT8=
EXTT9=
EXTT10=
PLAYORDER=
